<?xml version="1.0" standalone="no"?> <!DOCTYPE svg PUBLIC "-//W3C//DTD SVG 1.0//EN" "http://www.w3.org/TR/2001/REC-SVG-20010904/DTD/svg10.dtd" > <svg xmlns="http://www.w3.org/2000/svg" width="100%" height="100%">
<defs >
<font horiz-adv-x="852" ><font-face
    font-family="Federal Escort Expanded Italic"
    units-per-em="1000"
    panose-1="0 0 0 0 0 0 0 0 0 0"
    ascent="794"
    descent="-169"
    alphabetic="0" />
<missing-glyph horiz-adv-x="500" />
<glyph unicode=" " glyph-name="space" horiz-adv-x="452" />
<glyph unicode="!" glyph-name="FL0021h" horiz-adv-x="408" d="M92 92Q86 72 91 56T112 27T151 7T204 0Q233 0 260 7T311 26T351 55T374 92Q380 111 375 128T354 157T316 177T264 184Q235 184 207 177T156 158T115 128T92 92ZM554 561H218L138 315L136 227H418L474
315L554 561Z" />
<glyph unicode="&quot;" glyph-name="FL0022h" horiz-adv-x="605" d="M438 369L471 470Q477 489 492 505T528 534T574 554T626 561Q651 561 671 554T705 535T723 506T722 470L689 369Q683 350 668 334T631 305T585 285T534 278Q507 278 487 285T453 304T436 333T438
369ZM156 368L188 469Q194 488 209 504T246 533T292 553T344 560Q369 560 389 553T423 534T440 505T439 469L407 368Q401 349 386 333T349 304T303 284T252 277Q225 277 205 284T171 303T154 332T156 368Z" />
<glyph unicode="#" glyph-name="FL0023h" horiz-adv-x="1007" d="M534 251L553 310H655L636 251H534ZM1037 453L1072 561H736L701 453H599L634 561H298L263 453H183L137 310H217L198 251H118L71 108H151L116 0H452L487 108H589L554 0H890L925 108H1006L1053 251H972L991
310H1072L1118 453H1037Z" />
<glyph unicode="$" glyph-name="FL0024h" horiz-adv-x="922" d="M800 631L769 535H1058L1010 388H523Q512 388 503 381T491 366L487 353H847Q871 353 895 346T938 325T966 294T969 255L941 170Q933 146 912 121T861 76T798 42T729 29H603L575 -60H306L334 29H45L93
176H580Q592 176 601 183T612 198L616 210H260Q237 210 214 221T173 251T147 291T145 337L165 398Q174 424 195 448T244 492T306 523T374 535H500L531 631H800Z" />
<glyph unicode="%" glyph-name="FL0025h" horiz-adv-x="1124" d="M356 391L373 444Q376 450 382 452H419Q423 452 424 449T424 444L407 391Q402 385 397 385H360Q354 385 356 391ZM882 111L899 164Q902 171 908 172H945Q949 172 949 169T949 164L932 111Q929 105
923 105H886Q880 105 882 111ZM1098 280H823L1220 561H880L587 353L631 489Q635 502 633 514T622 537T601 553T572 560H301Q284 560 267 554T236 537T210 515T195 489L147 341Q143 329 146 318T158 299T179 285T205 280H482L86 0H427L720 207L673 61Q669 49 672
38T684 19T705 5T731 0H1010Q1024 0 1039 5T1069 18T1093 38T1108 61L1156 209Q1160 222 1158 234T1148 257T1127 273T1098 280Z" />
<glyph unicode="&amp;" glyph-name="FL0026h" horiz-adv-x="1015" d="M424 181Q429 197 440 204T477 211H635L626 184Q621 169 610 158T588 147H455Q432 147 426 157T424 181ZM949 144L970 208H1047L1093 350H523Q498 350 491 356T489 380Q494 394 507 404T543
414H931L978 561H400Q356 561 317 545T247 503T195 448T164 391Q155 363 156 333T178 285Q143 264 123 233T91 170Q82 142 82 112T94 57T137 16T217 0H766Q798 0 827 11T879 41T921 87T949 144Z" />
<glyph unicode="&apos;" glyph-name="FL0027h" horiz-adv-x="335" d="M189 470L156 369Q150 350 154 334T173 305T209 285T258 278Q285 278 311 285T359 304T397 333T419 369L452 470Q458 489 453 505T434 534T399 554T350 561Q323 561 297 554T248 535T211 506T189 470Z" />
<glyph unicode="(" glyph-name="FL0028h" horiz-adv-x="516" d="M402 615H680L632 468H550Q539 468 529 457T515 438L411 116Q407 106 412 100T427 93H502L454 -54H174Q147 -54 123 -44T82 -16T58 23T58 69L189 472Q198 498 219 523T270 569T334 602T402 615Z" />
<glyph unicode=")" glyph-name="FL0029h" horiz-adv-x="516" d="M236 615H514Q548 615 574 603T616 570T637 524T633 472L502 69Q494 45 473 23T424 -16T364 -43T306 -54H26L74 93H149Q159 93 168 99T181 116L285 438Q288 446 285 457T270 468H188L236 615Z" />
<glyph unicode="*" glyph-name="asterisk" horiz-adv-x="346" d="M312 444L264 391L184 458L243 495L185 508L255 604L297 578L307 628H436L414 578L480 602L490 507L414 495L452 457L327 391L312 444Z" />
<glyph unicode="+" glyph-name="FL002Bh" horiz-adv-x="474" d="M437 351L468 446H296L265 351H150L104 208H219L187 111H359L391 208H506L552 351H437Z" />
<glyph unicode="," glyph-name="FL002Ch" horiz-adv-x="354" d="M66 92L32 -11Q26 -31 32 -47T53 -76T92 -96T145 -103Q173 -103 201 -96T252 -77T291 -48T314 -11L348 92Q354 111 349 128T328 157T290 177T238 184Q209 184 181 177T130 158T89 128T66 92Z" />
<glyph unicode="-" glyph-name="FL002Dh" horiz-adv-x="474" d="M150 351L104 208H506L552 351H150Z" />
<glyph unicode="." glyph-name="FL002Eh" horiz-adv-x="354" d="M66 92Q72 111 89 128T129 157T181 177T238 184Q266 184 289 177T328 158T348 128T348 92Q342 72 325 56T285 27T234 7T178 0Q149 0 126 7T87 26T66 55T66 92Z" />
<glyph unicode="/" glyph-name="FL002Fh" horiz-adv-x="992" d="M414 0L1154 561H760L20 0H414Z" />
<glyph unicode="0" glyph-name="FL0030h" horiz-adv-x="920" d="M426 170L495 382Q498 390 507 401T530 414H658Q672 414 674 402T674 382L605 170Q600 164 590 156T571 147H445Q430 147 428 156T426 170ZM902 561H382Q348 561 314 549T252 516T202 470T172 418L76
123Q68 99 75 77T99 38T140 11T192 0H728Q756 0 787 10T846 38T895 77T924 123L1020 418Q1028 444 1024 469T1003 515T962 548T902 561Z" />
<glyph unicode="1" glyph-name="FL0031h" horiz-adv-x="542" d="M506 0H170L305 414H171L218 561H688L506 0Z" />
<glyph unicode="2" glyph-name="FL0032h" horiz-adv-x="922" d="M36 0L119 255Q126 276 147 294T195 325T251 345T305 353H665L675 384Q677 392 674 403T659 414H172L219 561H903Q936 561 962 550T1005 519T1027 475T1024 424L995 337Q988 314 965 292T913 251T852
222T798 210H441L421 147H934L886 0H36Z" />
<glyph unicode="3" glyph-name="FL0033h" horiz-adv-x="870" d="M575 350H150L105 211H531Q557 211 563 204T564 181Q559 167 547 157T511 147H84L36 0H653Q704 0 743 16T812 57T861 112T889 170Q900 202 900 233Q900 264 878 285Q910 302 930 332T960 391Q969
418 967 448T950 503T907 544T834 561H218L171 414H597Q620 414 626 404T627 380Q622 363 611 357T575 350Z" />
<glyph unicode="4" glyph-name="FL0034h" horiz-adv-x="1111" d="M94 180L506 506Q512 512 525 521T555 539T587 554T615 561H1110L1001 224H1148L1101 81H954L928 0H593L619 81H62L94 180ZM541 224H666L702 335Q702 336 697 338T689 342Q683 342 680 340T672
333L541 224Z" />
<glyph unicode="5" glyph-name="FL0035h" horiz-adv-x="922" d="M932 141L969 255Q976 276 967 294T939 325T896 345T847 353H487L507 414H1019L1066 561H218L145 337Q138 314 146 292T172 251T213 222T260 210H616L606 177Q603 169 593 158T571 147H84L36 0H720Q754
0 788 13T852 46T902 92T932 141Z" />
<glyph unicode="6" glyph-name="FL0036h" horiz-adv-x="943" d="M445 147H594Q604 147 613 155T627 170L641 211H441L427 170Q428 167 428 163T430 156T435 150T445 147ZM989 253L947 123Q939 99 918 77T869 38T810 11T751 0H192Q165 0 141 11T100 39T76 78T76
123L172 418Q180 444 201 469T251 515T314 548T382 561H1086L1039 414H532Q521 414 510 403T497 384L494 382H496L489 359H868Q892 359 917 351T960 328T987 294T989 253Z" />
<glyph unicode="7" glyph-name="FL0037h" horiz-adv-x="978" d="M137 0H530L1077 414L1124 561H218L171 414H683L137 0Z" />
<glyph unicode="8" glyph-name="FL0038h" horiz-adv-x="923" d="M629 350H522Q496 350 490 356T488 380Q493 393 504 402T535 414H651Q674 414 680 404T681 380Q676 363 665 357T629 350ZM423 181Q428 195 437 202T469 211H592Q612 209 617 202T618 181Q608 151
571 147H454Q431 147 425 157T423 181ZM888 561H399Q355 561 316 545T246 503T194 448T163 391Q154 363 155 333T177 285Q142 264 122 233T90 170Q81 142 81 112T93 57T135 16T216 0H707Q758 0 797 16T866 57T915 112T943 170Q954 202 954 233Q954 264 932 285Q964
302 984 332T1014 391Q1023 418 1021 448T1004 503T961 544T888 561Z" />
<glyph unicode="9" glyph-name="FL0039h" horiz-adv-x="943" d="M681 414H532Q522 414 513 406T498 391L485 350H685L698 391Q696 397 696 405T681 414ZM136 308L178 438Q186 462 207 484T256 523T315 550T374 561H933Q960 561 984 550T1025 522T1049 483T1049
438L953 143Q945 117 924 92T873 46T810 13T743 0H40L88 147H594Q606 147 616 158T629 177L632 179H629L637 202H258Q234 202 209 210T166 233T138 267T136 308Z" />
<glyph unicode=":" glyph-name="FL003Ah" horiz-adv-x="354" d="M66 92Q72 111 89 128T129 157T181 177T238 184Q266 184 289 177T328 158T348 128T348 92Q342 72 325 56T285 27T234 7T178 0Q149 0 126 7T87 26T66 55T66 92ZM140 323Q146 342 163 359T203 388T254
408T311 415Q340 415 363 408T402 389T422 359T422 323Q416 303 399 287T359 258T308 238T251 231Q222 231 199 238T161 257T140 286T140 323Z" />
<glyph unicode=";" glyph-name="FL003Bh" horiz-adv-x="354" d="M140 323Q146 342 163 359T203 388T254 408T311 415Q340 415 363 408T402 389T422 359T422 323Q416 303 399 287T359 258T308 238T251 231Q222 231 199 238T161 257T140 286T140 323ZM32 -11L66
92Q72 111 89 128T129 157T181 177T238 184Q266 184 289 177T328 158T348 128T348 92L314 -11Q308 -31 292 -47T252 -76T201 -96T145 -103Q116 -103 93 -96T54 -77T32 -48T32 -11Z" />
<glyph unicode="&lt;" glyph-name="FL003Ch" horiz-adv-x="714" d="M300 0L111 281L481 561H874L505 281L694 0H300Z" />
<glyph unicode="=" glyph-name="FL003Dh" horiz-adv-x="523" d="M183 453L137 310H588L634 453H183ZM118 251L71 108H522L569 251H118Z" />
<glyph unicode="&gt;" glyph-name="FL003Eh" horiz-adv-x="714" d="M413 0L783 281L596 561H202L390 281L19 0H413Z" />
<glyph unicode="?" glyph-name="FL003Fh" horiz-adv-x="922" d="M196 92Q190 72 195 56T216 27T254 7T307 0Q336 0 364 7T415 26T455 55T478 92Q484 111 479 128T458 157T420 177T367 184Q338 184 310 177T259 158T219 128T196 92ZM249 255L236 214H800Q823 214
854 225T914 253T965 292T995 337L1024 424Q1032 450 1027 474T1006 518T963 549T903 561H219L172 414H659Q671 414 674 403T675 384L665 353H434Q410 353 381 346T325 325T277 294T249 255Z" />
<glyph unicode="@" glyph-name="FL0040h" horiz-adv-x="1244" d="M623 421H894Q911 421 924 415T944 398T954 376T953 350L932 287H956Q966 287 975 293T988 310L1029 438Q1032 446 1029 457T1014 468H535Q523 468 513 457T500 438L396 116Q392 106 396 100T412
93H869L821 -54H158Q131 -54 107 -44T66 -16T42 23T42 69L173 472Q182 498 203 523T254 569T318 602T386 615H1258Q1292 615 1318 603T1360 570T1381 524T1377 472L1310 264Q1302 240 1281 218T1231 179T1172 152T1114 141H527Q514 141 502 146T481 159T469 179T469
202L517 350Q521 363 532 375T557 398T589 414T623 421ZM695 305L678 252Q676 246 682 246H720Q726 246 729 252L746 305Q747 307 746 310T742 313H704Q697 311 695 305Z" />
<glyph unicode="A" glyph-name="FL0041h" horiz-adv-x="943" d="M498 391L469 301H669L698 391Q697 394 697 398Q697 402 696 405T692 411T681 414H532Q522 414 513 406T498 392V391ZM907 0H571L622 158H422L371 0H36L178 437Q185 461 206 483T256 522T316 550T374
561H933Q960 561 984 550T1025 522T1049 482T1049 437L907 0Z" />
<glyph unicode="B" glyph-name="FL0042h" horiz-adv-x="943" d="M485 350H648Q674 350 684 356T700 380Q705 394 699 404T670 414H506L485 350ZM604 211H440L419 147H584Q607 147 619 157T637 181Q642 197 636 204T604 211ZM726 0H36L218 561H907Q951 561 979
545T1022 503T1039 448T1033 391Q1024 363 1004 333T951 285Q973 264 973 233Q973 202 962 170Q953 142 934 112T886 57T817 16T726 0Z" />
<glyph unicode="C" glyph-name="FL0043h" horiz-adv-x="844" d="M382 561H990L943 414H532Q521 414 510 403T497 384L427 170Q425 160 430 154T445 147H848L800 0H192Q165 0 141 10T99 38T75 77T76 123L172 418Q180 444 201 469T251 515T314 548T382 561Z" />
<glyph unicode="D" glyph-name="FL0044h" horiz-adv-x="935" d="M503 403L421 150H545Q570 150 586 159T613 182T631 213T643 245L665 313Q669 326 672 342T676 371T668 394T643 403H503ZM36 0L218 561H949Q973 561 993 549T1025 517T1042 474T1039 431L935 110Q929
92 913 73T874 37T828 11T782 0H36Z" />
<glyph unicode="E" glyph-name="FL0045h" horiz-adv-x="844" d="M382 561H990L943 414H532Q521 414 510 402T495 382Q491 371 497 361T520 351H922L876 208H465Q464 208 460 206T450 199T440 191T432 184T429 177Q428 175 428 173Q428 171 427 170Q429 164 436
156T445 147H856L808 0H192Q165 0 141 10T99 38T75 77T76 123L172 418Q180 444 201 469T251 515T314 548T382 561Z" />
<glyph unicode="F" glyph-name="FL0046h" horiz-adv-x="844" d="M382 561H990L943 414H532Q521 414 510 402T495 382Q491 371 497 361T520 351H922L876 208H465Q464 208 460 206T450 199T440 191T432 184L372 0H36L172 418Q180 444 201 469T251 515T314 548T382 561Z" />
<glyph unicode="G" glyph-name="FL00B9h" horiz-adv-x="943" d="M382 561H990L943 414H532Q521 414 510 403T497 384L494 382H496L427 170Q428 167 428 163T430 156T435 150T445 147H594Q604 147 613 155T627 169L696 382H1031L947 123Q939 99 918 77T869 38T810
11T751 0H192Q165 0 141 11T100 39T76 78T76 123L172 418Q180 444 201 469T251 515T314 548T382 561Z" />
<glyph unicode="H" glyph-name="FL0048h" horiz-adv-x="907" d="M716 561H1053L871 0H534L602 208H440L372 0H36L218 561H554L486 351H648L716 561Z" />
<glyph unicode="I" glyph-name="FL0049h" horiz-adv-x="869" d="M84 147L36 0H832L880 147H649L736 414H968L1015 561H219L172 414H400L313 147H84Z" />
<glyph unicode="J" glyph-name="FL004Ah" horiz-adv-x="943" d="M427 170L461 273H125L76 123Q68 100 75 78T99 39T140 11T192 0H751Q778 0 809 10T868 38T917 77T947 123L1089 561H754L627 170Q622 164 613 156T594 147H445Q438 147 435 149T431 155T429 163T427 170Z" />
<glyph unicode="K" glyph-name="FL004Bh" horiz-adv-x="901" d="M450 97L425 164L372 0H36L218 561H554L489 359Q516 389 539 419T600 473V475Q606 480 623 493T666 520T724 546T793 561H1047L999 413H885Q869 413 843 402T790 375T742 339T715 301Q706 272 716
245T748 196T800 161T860 148H913L865 0H587Q563 0 542 10T504 34T473 66T450 97Z" />
<glyph unicode="L" glyph-name="FL004Ch" horiz-adv-x="844" d="M82 142L218 561H554L432 184Q425 164 433 157T466 147H856L808 0H174Q142 0 121 11T87 41T74 86T82 142Z" />
<glyph unicode="M" glyph-name="FL004Dh" horiz-adv-x="1331" d="M958 0L1085 391Q1083 397 1082 405T1067 414H992Q984 414 976 407T961 395L960 393L832 0H494L621 391Q621 397 620 405T605 414H531Q521 414 512 406T497 391L370 0H35L177 438Q185 462 206 484T255
523T314 550T373 561H1320Q1347 561 1371 550T1412 522T1436 483T1436 438L1294 0H958Z" />
<glyph unicode="N" glyph-name="FL004Eh" horiz-adv-x="943" d="M698 391L571 0H907L1049 438Q1056 460 1049 482T1026 522T985 550T933 561H218L36 0H371L506 414H681Q695 414 695 406T698 391Z" />
<glyph unicode="O" glyph-name="FL004Fh" horiz-adv-x="943" d="M426 170L495 382Q498 390 507 401T530 414H681Q695 414 697 402T696 382L627 170Q622 164 612 156T594 147H445Q430 147 428 156T426 170ZM925 561H382Q348 561 314 549T252 516T202 470T172 418L76
123Q68 99 75 77T99 38T140 11T192 0H751Q778 0 809 10T868 38T917 77T947 123L1043 418Q1051 444 1047 469T1026 515T985 548T925 561Z" />
<glyph unicode="P" glyph-name="FL0050h" horiz-adv-x="943" d="M506 414L470 304H628Q640 304 650 309T670 323T685 342T695 360Q697 367 698 376T697 393T688 408T671 414H506ZM36 0L218 561H908Q959 561 987 541T1026 491T1037 427T1026 366Q1014 328 992 291T940
224T869 176T778 157H422L371 0H36Z" />
<glyph unicode="Q" glyph-name="FL0051h" horiz-adv-x="946" d="M647 226L629 170Q624 164 617 156T596 147H444Q441 147 436 155T428 170L497 382Q500 390 510 402T535 414H686Q697 412 699 401T699 382Q697 380 694 369L690 356L682 333L669 291L647 226ZM188
0H-44L-92 -149H376Q404 -149 435 -139T496 -114T552 -79T599 -40L638 0H754Q781 0 812 10T871 38T920 77T950 123L1046 418Q1054 444 1049 469T1028 515T986 548T927 561H385Q351 561 317 549T254 516T204 470T174 418L78 123Q70 100 77 79T100 40T139 12T188
0Z" />
<glyph unicode="R" glyph-name="FL0052h" horiz-adv-x="971" d="M506 414L470 304H628Q640 304 650 310T670 324T685 343T695 361Q697 368 698 377T697 394T688 408T671 414H506ZM36 0L218 561H920Q972 561 999 545T1037 504T1046 449T1034 391Q1026 367 1012
339T977 287T932 246T878 230Q870 225 868 217Q865 210 866 209L989 0H574L503 123Q494 137 479 147T443 157H441Q433 155 427 153T420 150L371 0H36Z" />
<glyph unicode="S" glyph-name="FL005Ah" horiz-adv-x="922" d="M932 141L969 255Q976 276 967 294T939 325T896 345T847 353H487L497 384Q499 392 510 403T532 414H1019L1066 561H382Q348 561 315 550T253 519T203 475T174 424L145 337Q138 314 146 292T172 251T213
222T260 210H616L606 177Q603 169 593 158T571 147H84L36 0H720Q754 0 788 13T852 46T902 92T932 141Z" />
<glyph unicode="T" glyph-name="FL0055h" horiz-adv-x="899" d="M218 561H1045L998 414H751L616 0H280L415 414H171L218 561Z" />
<glyph unicode="U" glyph-name="FL0056h" horiz-adv-x="943" d="M427 170L554 561H218L76 123Q68 100 75 78T99 39T140 11T192 0H907L1089 561H754L620 147H445Q438 147 435 149T431 155T429 163T427 170Z" />
<glyph unicode="V" glyph-name="FL0057h" horiz-adv-x="1109" d="M640 54L1270 561H877L477 230Q470 225 467 222T456 218Q453 220 449 222T444 225L553 560H218L36 -1H530Q543 -1 559 5T590 21T619 39T640 54Z" />
<glyph unicode="W" glyph-name="FL0059h" horiz-adv-x="1331" d="M858 561H831L463 282L553 561H217L35 0H458Q471 0 494 11T546 41T602 80T655 120T696 153T717 172H721Q721 169 721 169Q725 160 741 133T778 76T821 23T862 0H1294L1476 561H1140L1050 282L858 561Z" />
<glyph unicode="X" glyph-name="FL0058h" horiz-adv-x="901" d="M36 0H187Q222 0 256 5T326 27Q352 40 381 58T443 106Q445 104 446 102T450 97Q459 83 473 66T504 35T542 10T587 0H865L913 148H860Q830 148 801 164T751 204T720 257T718 310Q722 322 740 339T780
373T822 401T852 413H999L1047 561H793Q758 554 728 538T674 505T638 476T624 463Q616 473 608 489T587 522T552 549T498 561H218L170 413H218Q222 413 234 413T260 410T289 402T313 388Q339 361 355 332T387 274Q375 254 347 233T288 192T230 161T191 149H84L36
0Z" />
<glyph unicode="Y" glyph-name="FL007Ch" horiz-adv-x="928" d="M736 561H1074L939 144Q929 114 911 88T868 42T815 11T755 0H42L90 147H559Q585 149 596 156T614 184L621 207H259Q232 207 208 218T167 246T143 285T143 330L218 561H554L494 374Q495 371 495 367Q495
363 496 360T501 353T511 350H646Q653 350 661 358T675 372L736 561Z" />
<glyph unicode="Z" glyph-name="FL007Bh" horiz-adv-x="1118" d="M1130 148L1082 0H646Q617 0 592 9T547 35T513 70T493 110L412 349Q409 357 403 368T390 389T373 407T352 414H171L218 561H645Q670 561 693 550T734 522T765 486T783 452L863 219Q864 212 869
200T883 177T901 157T922 148H1130Z" />
<glyph unicode="[" glyph-name="FL005Bh" horiz-adv-x="516" d="M680 615H236L18 -54H454L502 93H403L525 468H632L680 615Z" />
<glyph unicode="\" glyph-name="FL005Ch" horiz-adv-x="992" d="M577 0L201 561H595L971 0H577Z" />
<glyph unicode="]" glyph-name="FL005Dh" horiz-adv-x="516" d="M236 615H680L462 -54H26L74 93H173L295 468H188L236 615Z" />
<glyph unicode="^" glyph-name="FL005Eh" horiz-adv-x="1110" d="M786 506L1090 -1H695L509 333Q507 338 506 340T497 342Q493 340 487 338T480 335L371 0H36L218 561H714Q727 561 738 555T758 539T774 521T786 506Z" />
<glyph unicode="_" glyph-name="FL005Fh" horiz-adv-x="707" d="M719 147L671 0H36L84 147H719Z" />
<glyph unicode="`" glyph-name="FL0061h" horiz-adv-x="1753" d="M998 414H751L616 0H280L415 414H171L218 561H1045L998 414ZM665 0L1297 507Q1303 513 1316 522T1345 540T1377 555T1406 562H1900L1717 1H1382L1491 336Q1491 337 1487 339T1479 343Q1473 343
1471 341T1463 334L1058 0H665Z" />
<glyph unicode="a" glyph-name="a" horiz-adv-x="1109" d="M20 -1L651 506Q657 512 670 521T700 539T732 554T760 561H1255L1073 0H738L847 335Q847 336 842 338T835 342Q828 342 825 340T817 333L414 -1H20Z" />
<glyph unicode="b" glyph-name="FL0062h" horiz-adv-x="943" d="M485 350H648Q674 350 684 356T700 380Q705 394 699 404T670 414H506L485 350ZM604 211H440L419 147H584Q607 147 619 157T637 181Q642 197 636 204T604 211ZM726 0H36L218 561H907Q951 561 979
545T1022 503T1039 448T1033 391Q1024 363 1004 333T951 285Q973 264 973 233Q973 202 962 170Q953 142 934 112T886 57T817 16T726 0Z" />
<glyph unicode="c" glyph-name="FL0063h" horiz-adv-x="844" d="M990 561H382Q348 561 314 549T252 516T202 470T172 418L76 123Q68 99 75 77T99 38T140 11T192 0H800L848 147H445Q435 147 430 153T427 170L497 384Q499 392 510 403T532 414H943L990 561Z" />
<glyph unicode="d" glyph-name="d" horiz-adv-x="935" d="M503 403L421 150H545Q570 150 586 159T613 182T631 213T643 245L665 313Q669 326 672 342T676 371T668 394T643 403H503ZM36 0L218 561H949Q973 561 993 549T1025 517T1042 474T1039 431L935 110Q929
92 913 73T874 37T828 11T782 0H36Z" />
<glyph unicode="e" glyph-name="E" horiz-adv-x="844" d="M990 561H382Q348 561 314 549T252 516T202 470T172 418L76 123Q68 99 75 77T99 38T140 11T192 0H808L856 147H445Q443 147 436 155T427 170Q428 171 428 173Q428 175 429 177Q429 181 432 184T440 191T450
199T459 205T465 208H876L922 351H520Q504 351 498 361T495 382Q498 390 509 402T532 414H943L990 561Z" />
<glyph unicode="f" glyph-name="FL0066h" horiz-adv-x="844" d="M990 561H382Q348 561 314 549T252 516T202 470T172 418L36 0H372L432 184Q435 187 440 191T450 199T459 205T465 208H876L922 351H520Q504 351 498 361T495 382Q498 390 509 402T532 414H943L990 561Z" />
<glyph unicode="g" glyph-name="FL0067h" horiz-adv-x="943" d="M989 253L947 123Q939 99 918 77T869 38T810 11T751 0H192Q165 0 141 11T100 39T76 78T76 123L172 418Q180 444 201 469T251 515T314 548T382 561H1086L1039 414H532Q521 414 510 403T497 384L494
382H496L427 170Q428 167 428 163T430 156T435 150T445 147H594Q604 147 613 155T627 170L641 211H508L556 359H868Q892 359 917 351T960 328T987 294T989 253Z" />
<glyph unicode="h" glyph-name="FL0068h" horiz-adv-x="907" d="M716 561H1053L871 0H534L602 208H440L372 0H36L218 561H554L486 351H648L716 561Z" />
<glyph unicode="i" glyph-name="FL0069h" horiz-adv-x="408" d="M218 561H554L372 0H36L218 561Z" />
<glyph unicode="j" glyph-name="FL006Ah" horiz-adv-x="844" d="M855 144L990 561H654L532 184Q525 164 513 157T474 147H84L36 0H671Q703 0 732 11T785 41T827 87T855 144Z" />
<glyph unicode="k" glyph-name="FL006Bh" horiz-adv-x="901" d="M450 97L425 164L372 0H36L218 561H554L489 359Q516 389 539 419T600 473V475Q606 480 623 493T666 520T724 546T793 561H1047L999 413H885Q869 413 843 402T790 375T742 339T715 301Q706 272 716
245T748 196T800 161T860 148H913L865 0H587Q563 0 542 10T504 34T473 66T450 97Z" />
<glyph unicode="l" glyph-name="l" horiz-adv-x="844" d="M218 561L82 142Q72 112 73 87T87 42T120 11T174 0H808L856 147H466Q441 149 433 156T432 184L554 561H218Z" />
<glyph unicode="m" glyph-name="FL006Dh" horiz-adv-x="1331" d="M680 0H654L463 279L372 0H36L218 561H650Q668 561 690 538T733 486T769 429T789 392Q792 390 791 389H793Q797 393 814 407T855 441T909 481T965 520T1016 549T1053 561H1477L1295 0H959L1050 279L680 0Z" />
<glyph unicode="n" glyph-name="FL0071h" horiz-adv-x="1103" d="M915 561H1249L1067 0H680Q653 0 632 10T594 35T565 68T544 104L463 279L372 0H36L218 561H631Q650 561 669 550T704 524T733 491T750 460L822 275L915 561Z" />
<glyph unicode="o" glyph-name="FL006Fh" horiz-adv-x="943" d="M382 561H925Q959 561 984 549T1026 516T1046 470T1043 418L947 123Q939 99 918 77T869 38T810 11T751 0H192Q165 0 141 10T99 38T75 77T76 123L172 418Q180 444 201 469T251 515T314 548T382 561ZM495
382L426 170Q425 165 427 156T445 147H594Q602 147 612 155T627 170L696 382Q699 390 697 402T681 414H530Q517 412 508 401T495 382Z" />
<glyph unicode="p" glyph-name="FL0070h" horiz-adv-x="943" d="M218 561L36 0H371L422 157H778Q828 157 868 175T939 223T992 290T1026 366Q1035 393 1036 427T1027 490T987 540T908 561H218ZM470 304L506 414H671Q682 414 688 408T696 394T698 376T695 360Q692
352 686 342T670 324T651 310T628 304H470Z" />
<glyph unicode="q" glyph-name="FL0072h" horiz-adv-x="943" d="M990 0H757Q784 1 814 12T871 40T918 78T947 123L1043 418Q1051 444 1047 469T1026 515T985 548T925 561H382Q348 561 314 549T252 516T202 470T172 418L76 123Q68 99 75 77T99 38T140 11T192 0H307L321
-40Q327 -59 341 -78T375 -113T420 -139T474 -149H942L990 0ZM427 170L445 226L467 291L480 333L488 356L492 369Q496 381 495 382Q498 390 507 401T530 414H681Q695 414 697 402T696 382L627 170Q625 167 621 163T612 156T603 150T598 147H445Q438 147 435 149T431
155T429 163T427 170Z" />
<glyph unicode="r" glyph-name="r" horiz-adv-x="971" d="M506 414L470 304H628Q640 304 650 310T670 324T685 343T695 361Q697 368 698 377T697 394T688 408T671 414H506ZM36 0L218 561H920Q972 561 999 545T1037 504T1046 449T1034 391Q1026 367 1012 339T977
287T932 246T878 230Q870 225 868 217Q865 210 866 209L989 0H574L503 123Q494 137 479 147T443 157H441Q433 155 427 153T420 150L371 0H36Z" />
<glyph unicode="s" glyph-name="s" horiz-adv-x="1080" d="M36 0L84 148H260Q270 148 284 155T313 173T341 195T363 215L597 452Q606 461 630 479T685 516T748 547T805 561H1226L1179 414H1004Q993 414 978 407T948 390T919 368T900 349L665 110Q645 91 619 72T564
36T502 10T440 0H36Z" />
<glyph unicode="t" glyph-name="FL0074h" horiz-adv-x="899" d="M1045 561H218L171 414H415L280 0H616L751 414H998L1045 561Z" />
<glyph unicode="u" glyph-name="FL0075h" horiz-adv-x="943" d="M427 170L554 561H218L76 123Q68 100 75 78T99 39T140 11T192 0H751Q778 0 809 10T868 38T917 77T947 123L1089 561H754L627 169Q622 163 613 155T594 147H445Q438 147 435 149T431 155T429 163T427 170Z" />
<glyph unicode="v" glyph-name="FL0076h" horiz-adv-x="1109" d="M202 561L505 54Q508 49 515 40T531 21T553 6T578 -1H1073L1255 560H920L811 225Q811 224 805 222T795 218Q788 218 786 221T782 230L596 561H202Z" />
<glyph unicode="w" glyph-name="FL0077h" horiz-adv-x="1331" d="M554 561L427 170Q428 167 428 163T430 156T435 150T445 147H521Q529 147 537 154T551 166L553 168L680 561H1017L890 170Q892 164 892 156T907 147H982Q992 147 1001 155T1015 170L1142 561H1477L1335
123Q1327 99 1306 77T1257 38T1198 11T1139 0H192Q165 0 141 11T100 39T76 78T76 123L218 561H554Z" />
<glyph unicode="x" glyph-name="x" horiz-adv-x="901" d="M187 0H36L84 149H191Q202 149 229 161T288 192T347 232T387 274Q371 303 355 332T313 388Q304 397 290 402T261 409T234 412T218 413H170L218 561H498Q531 561 552 550T586 522T608 490T624 463Q625 463
638 475T674 504T727 537T793 561H1047L999 413H852Q843 413 823 402T780 374T740 340T718 310Q710 286 720 258T751 205T801 164T860 148H913L865 0H587Q563 0 542 10T504 34T473 66T450 97Q448 100 447 102T443 106Q411 77 382 59T326 27Q291 10 257 5T187 0Z"
/>
<glyph unicode="y" glyph-name="FL0079h" horiz-adv-x="901" d="M999 413L1047 561H784Q749 553 720 537T668 503T633 473T618 460Q609 470 601 487T578 520T543 549T489 561H218L170 413H218Q222 413 233 412T258 408T287 399T313 380Q334 359 353 339T373 284L281
0H617L715 302Q721 319 742 337T790 370T840 397T877 413H999Z" />
<glyph unicode="z" glyph-name="FL007Dh" horiz-adv-x="1079" d="M1043 0L1091 148H916Q904 148 894 156T877 176T864 200T856 219L777 452Q772 461 760 479T730 516T688 547T639 561H218L171 414H345Q357 414 366 407T383 390T397 368T406 349L487 110Q493 91
507 72T541 36T586 10T641 0H1043Z" />
<glyph unicode="{" glyph-name="FL0060h" horiz-adv-x="1784" d="M36 0L84 148H260Q270 148 284 155T313 173T341 195T363 215L597 452Q606 461 630 479T685 516T748 547T805 561H1226L1179 414H1004Q993 414 978 407T948 390T919 368T900 349L665 110Q645 91
619 72T564 36T502 10T440 0H36ZM740 0L788 148H965Q975 148 989 155T1017 173T1045 195T1067 215L1301 452Q1310 461 1334 479T1389 516T1452 547T1509 561H1930L1883 414H1708Q1697 414 1682 407T1652 390T1624 368T1605 349L1369 110Q1349 91 1323 72T1268 36T1207
10T1145 0H740Z" />
<glyph unicode="|" glyph-name="FL007Eh" horiz-adv-x="408" d="M609 730H273L-19 -169H317L609 730Z" />
<glyph unicode="}" glyph-name="FL0083h" horiz-adv-x="1844" d="M36 0L84 148H260Q270 148 284 155T313 173T341 195T363 215L597 452Q606 461 630 479T685 516T748 547T805 561H1226L1179 414H1004Q993 414 978 407T948 390T919 368T900 349L665 110Q645 91
619 72T564 36T502 10T440 0H36ZM756 0L1388 507Q1394 513 1407 522T1437 540T1469 555T1497 562H1991L1808 1H1474L1583 336Q1583 337 1578 339T1570 343Q1564 343 1562 341T1554 334L1150 0H756Z" />
<glyph unicode="~" glyph-name="FL0082h" horiz-adv-x="1759" d="M998 414H751L616 0H280L415 414H171L218 561H1045L998 414ZM715 0L763 148H940Q950 148 964 155T992 173T1020 195T1042 215L1276 452Q1285 461 1309 479T1364 516T1427 547T1484 561H1905L1858
414H1683Q1672 414 1657 407T1627 390T1598 368T1579 349L1344 110Q1324 91 1298 72T1243 36T1182 10T1120 0H715Z" />
<glyph unicode="" glyph-name="FL007Fh" horiz-adv-x="283" />
</font>
</defs>
</svg>
